# xmcd
# Track frame offsets:
# 150
# 18757
# 34530
# 50677
# 63290
# 81607
# 96320
# 111770
# 128720
# 144082
# 157970
# 173907
# 186265
# 198277
# 209397
#
# Disc length: 2977 seconds
# Revision: 3
# Processed by: cddbd v1.5.1PL0 Copyright (c) Steve Scherf et al.
# Submitted via: VisiTrax 2.9.10.228 - For more info visit www.synapsa.com
#
DISCID=c80b9f0f
DTITLE=Various Artist - CDX 357 november 2004
DYEAR=2004
DGENRE=Country
TTITLE0=Blaine Larsen - How Do You Get That Lonely
TTITLE1=Phil Vassar - I'll Take That As A Yes
TTITLE2=Toby Keith and Krystal - Mockingbird
TTITLE3=Wayne Warner - Something Bout You
TTITLE4=Jill King - Makes Perfect Sense To Me
TTITLE5=Kenny Isaacs - Back In Waco
TTITLE6=Ed Burleson - Honky-Tonk Heart
TTITLE7=Tod Barrett - Last Sunday
TTITLE8=Heather Monday - One Eighty
TTITLE9=Brian Bush - You've Got A Memory That Just Won't Quit
TTITLE10=Billy McKnight - You Wanna Make Somthing Of It
TTITLE11=Madonna Tassi - Christmas Tree Of Hope
TTITLE12=Dan Tyler - Happy Christmas
TTITLE13=Lisa Layne - Santa Drives An Eighteen Wheeler
TTITLE14=Katy Kiefer - Rush
EXTD=
EXTT0=
EXTT1=
EXTT2=
EXTT3=
EXTT4=
EXTT5=
EXTT6=
EXTT7=
EXTT8=
EXTT9=
EXTT10=
EXTT11=
EXTT12=
EXTT13=
EXTT14=
PLAYORDER=
